<?xml version="1.0" encoding="utf-8"?>
<!-- Generator: Adobe Illustrator 17.1.0, SVG Export Plug-In . SVG Version: 6.00 Build 0)  -->
<!DOCTYPE svg PUBLIC "-//W3C//DTD SVG 1.1//EN" "http://www.w3.org/Graphics/SVG/1.1/DTD/svg11.dtd">
<svg version="1.1" id="Layer_1" xmlns="http://www.w3.org/2000/svg" xmlns:xlink="http://www.w3.org/1999/xlink" x="0px" y="0px"
	 viewBox="0.5 3.8 225.3 54" enable-background="new 0.5 3.8 225.3 54" xml:space="preserve">
<g id="background">
</g>
<g id="guides">
</g>
<g>
	<g>
		<path fill="#FFFFFF" d="M71.7,24.6h4.9v0.7h-0.1c-1.5,0-1.7,0.7-1.7,1.6v4.7c0,4.2-3,5-5.3,5c-3.4,0-5.5-1.5-5.5-4.3v-5.6
			c0-0.9-0.3-1.3-1.3-1.3h-0.3v-0.7h5.9v0.7h-0.3c-0.8,0-1.3,0.4-1.3,1.3v5.6c0,2.3,1.7,3.1,3.4,3.1c2.5,0,3.7-1.4,3.7-3.5v-4.6
			c0-1.3-0.4-1.9-1.5-1.9h-0.3L71.7,24.6L71.7,24.6z"/>
		<path fill="#FFFFFF" d="M85.4,34.6c0,0.9,0.3,1.1,1.1,1.1v0.6H82v-0.6c0.8-0.1,1.1-0.6,1.1-2.1v-1.6c0-1.5-0.4-2.1-1.2-2.1
			c-0.6,0-1.2,0.3-2,0.8v3.8c0,0.8,0.4,1.2,1.1,1.2h0.2v0.6h-4.8v-0.6h0.1c0.8,0,1.1-0.3,1.1-1.3v-3.7c0-0.4-0.2-0.7-0.9-0.8
			l-0.4-0.1v-0.5l3.2-1.1h0.4v1.7c1.4-0.9,2.6-1.5,3.5-1.5c1.4,0,2,1,2,3.2L85.4,34.6L85.4,34.6z"/>
		<path fill="#FFFFFF" d="M92.4,36.3h-4.7v-0.6h0.2c0.8,0,1.1-0.3,1.1-1.3v-3.6c0-0.5-0.1-0.6-0.6-0.8l-0.6-0.2v-0.5l3.2-1.1h0.3
			v6.3c0,0.8,0.3,1.2,1.1,1.2L92.4,36.3L92.4,36.3z M91.5,25.2c0,0.8-0.7,1.3-1.5,1.3c-0.9,0-1.5-0.5-1.5-1.3c0-0.7,0.7-1.3,1.5-1.3
			C90.9,23.9,91.5,24.5,91.5,25.2z"/>
		<path fill="#FFFFFF" d="M92.6,28.6h4.8v0.6h-0.7c-0.4,0-0.6,0.4-0.2,1.1l1.7,3.7l1.5-3.3c0.4-1,0.2-1.4-1.1-1.5v-0.6h3.7v0.6
			c-1,0.1-1.2,0.3-1.6,1.1L98,36.4h-1.1l-2.8-6c-0.4-0.8-0.6-1.1-1.4-1.2V28.6z"/>
		<path fill="#FFFFFF" d="M109.8,34.1c-1.1,1.5-2.6,2.4-4,2.4c-2.1,0-3.4-1.6-3.4-3.9c0-2.5,1.7-4.2,4-4.2c1,0,1.8,0.3,2.4,0.9
			c1.1,1.1,0.6,2.2,1.2,2.5v0.5h-5.2c0.2,1.6,1.2,2.7,2.3,2.7c0.7,0,1.4-0.4,2.3-1.4L109.8,34.1z M107.4,31.6c0-1.4-0.5-2.3-1.3-2.3
			c-0.8,0-1.5,1-1.3,2.3H107.4z"/>
		<path fill="#FFFFFF" d="M116.2,36.3H111v-0.6h0.1c0.8,0,1.1-0.3,1.1-1.3v-3.1c0-0.8-0.1-1-0.7-1.3l-0.5-0.2v-0.5l3.1-1.2h0.4v2.1
			h0c0.7-1.4,1-1.9,1.6-1.9c0.1,0,0.3,0,0.4,0.1L118,29c-0.2,0.8-0.5,1.5-0.9,2c-0.6-0.2-1.3-0.5-1.5-0.5c-0.4,0-0.7,0.3-1.1,0.8v3
			c0,0.9,0.3,1.3,1.3,1.3h0.5C116.2,35.7,116.2,36.3,116.2,36.3z"/>
		<path fill="#FFFFFF" d="M119.2,34.1h0.6c0.3,1.1,1.1,1.6,2,1.6c0.5,0,1-0.4,1-0.9c0-1.3-3.5-1.7-3.5-4c0-1.4,1.2-2.4,2.9-2.4
			c0.7,0,1.3,0.1,2.1,0.4l0,2h-0.6c-0.3-1-1-1.6-1.8-1.6c-0.5,0-0.9,0.3-0.9,0.7c0,1.5,3.7,1.6,3.7,4.2c0,1.4-1,2.4-2.4,2.4
			c-1.3,0-1.7-0.3-2-0.3c-0.1,0-0.2,0.1-0.4,0.2h-0.5L119.2,34.1z"/>
		<path fill="#FFFFFF" d="M131,36.3h-4.7v-0.6h0.2c0.8,0,1.1-0.3,1.1-1.3v-3.6c0-0.5-0.1-0.6-0.6-0.8l-0.6-0.2v-0.5l3.2-1.1h0.3v6.3
			c0,0.8,0.3,1.2,1.1,1.2V36.3z M130.1,25.2c0,0.8-0.7,1.3-1.5,1.3c-0.9,0-1.5-0.5-1.5-1.3c0-0.7,0.7-1.3,1.5-1.3
			C129.5,23.9,130.1,24.5,130.1,25.2z"/>
		<path fill="#FFFFFF" d="M135.3,34.2c0,0.7,0.3,1,0.9,1c0.4,0,0.9-0.3,1.4-0.9l0.3,0.5c-0.6,1-1.7,1.7-2.7,1.7
			c-1.3,0-2.1-0.7-2.1-2.3v-4.5h-1v-0.5c1.1-0.5,2.4-1.8,2.7-2.9h0.6v2.4h2.5l-0.3,1h-2.2V34.2z"/>
		<path fill="#FFFFFF" d="M146.3,34.1c-1.1,1.5-2.6,2.4-4,2.4c-2,0-3.4-1.6-3.4-3.9c0-2.5,1.7-4.2,4-4.2c1,0,1.8,0.3,2.4,0.9
			c1.1,1.1,0.6,2.2,1.2,2.5v0.5h-5.2c0.1,1.6,1.2,2.7,2.3,2.7c0.7,0,1.4-0.4,2.3-1.4L146.3,34.1z M143.8,31.6c0-1.4-0.5-2.3-1.3-2.3
			c-0.8,0-1.5,1-1.3,2.3H143.8z"/>
		<path fill="#FFFFFF" d="M152,36.3h-4.7v-0.6h0.2c0.8,0,1.1-0.3,1.1-1.3v-3.6c0-0.5-0.1-0.6-0.6-0.8l-0.6-0.2v-0.5l3.2-1.1h0.3v6.3
			c0,0.8,0.3,1.2,1.1,1.2L152,36.3L152,36.3z M151.1,25.2c0,0.8-0.7,1.3-1.5,1.3c-0.9,0-1.5-0.5-1.5-1.3c0-0.7,0.7-1.3,1.5-1.3
			C150.5,23.9,151.1,24.5,151.1,25.2z"/>
		<path fill="#FFFFFF" d="M156.2,34.2c0,0.7,0.3,1,0.9,1c0.4,0,0.9-0.3,1.4-0.9l0.3,0.5c-0.6,1-1.7,1.7-2.7,1.7
			c-1.3,0-2.1-0.7-2.1-2.3v-4.5h-1v-0.5c1.1-0.5,2.4-1.8,2.7-2.9h0.5v2.4h2.5l-0.3,1h-2.2L156.2,34.2L156.2,34.2z"/>
		<path fill="#FFFFFF" d="M173,24.5h4.9v0.7h-0.1c-1.5,0-1.7,0.7-1.7,1.6v4.7c0,4.2-3,5-5.3,5c-3.4,0-5.5-1.5-5.5-4.3v-5.6
			c0-0.9-0.3-1.3-1.3-1.3h-0.3v-0.7h5.9v0.7h-0.3c-0.8,0-1.3,0.4-1.3,1.3v5.6c0,2.3,1.7,3.1,3.4,3.1c2.5,0,3.7-1.4,3.7-3.5v-4.6
			c0-1.3-0.4-1.9-1.5-1.9H173L173,24.5L173,24.5z"/>
		<path fill="#FFFFFF" d="M180.9,34.1c0,0.7,0.3,1,0.9,1c0.4,0,0.9-0.3,1.4-0.9l0.3,0.5c-0.6,1-1.7,1.7-2.7,1.7
			c-1.3,0-2.1-0.7-2.1-2.3v-4.5h-1v-0.5c1.1-0.5,2.4-1.8,2.7-2.9h0.5v2.4h2.5l-0.3,1h-2.2V34.1z"/>
		<path fill="#FFFFFF" d="M189.5,36.2h-5.2v-0.6h0.1c0.8,0,1.1-0.3,1.1-1.3v-3.1c0-0.8-0.1-1-0.7-1.3l-0.5-0.2v-0.5l3.1-1.2h0.4v2.1
			h0c0.7-1.4,1-1.9,1.6-1.9c0.1,0,0.3,0,0.4,0.1l1.5,0.5c-0.2,0.8-0.5,1.5-0.9,2c-0.6-0.2-1.3-0.5-1.5-0.5c-0.4,0-0.7,0.3-1.1,0.8v3
			c0,0.9,0.3,1.3,1.3,1.3h0.5L189.5,36.2L189.5,36.2z"/>
		<path fill="#FFFFFF" d="M199.5,34.1c-1,1.5-2.6,2.4-4,2.4c-2.1,0-3.4-1.6-3.4-3.9c0-2.5,1.7-4.2,4-4.2c1,0,1.8,0.3,2.4,0.9
			c1.1,1.1,0.6,2.2,1.2,2.5v0.5h-5.2c0.1,1.6,1.2,2.7,2.3,2.7c0.7,0,1.4-0.4,2.3-1.4L199.5,34.1z M197.1,31.6c0-1.4-0.5-2.3-1.3-2.3
			c-0.8,0-1.5,1-1.3,2.3H197.1z"/>
		<path fill="#FFFFFF" d="M208.6,34.4c-0.9,1.3-2.2,2-3.8,2c-2.3,0-4-1.6-4-3.7c0-2.5,2.1-4.4,4.9-4.4c1.6,0,2.8,0.7,2.8,1.6
			c0,0.6-0.4,0.9-1,0.9c-1.3,0-1.6-1.7-2.7-1.7c-0.9,0-1.6,1.1-1.6,2.8c0,2,1,3.4,2.4,3.4c0.8,0,1.6-0.4,2.4-1.3L208.6,34.4z"/>
		<path fill="#FFFFFF" d="M212.6,34.3c0,1.2,0.3,1.3,1,1.3h0.2v0.6H209v-0.6h0.3c1,0,1-0.4,1-1.4V26c0-0.5-0.1-0.7-0.6-0.8l-0.5-0.2
			v-0.4l3-0.9h0.4v6.1c1.1-0.7,2.4-1.4,3.4-1.4c1.4,0,2.1,1.1,2.1,3.3v2.5c0,1.1,0.1,1.5,0.8,1.5h0.2v0.6h-4.4v-0.6h0.2
			c0.8,0,1-0.3,1-1.4v-2.8c0-1-0.5-1.7-1.2-1.7c-0.5,0-1.3,0.3-1.9,0.7V34.3z"/>
		<path fill="#FFFFFF" d="M223.2,34.1c0,0.7,0.3,1,0.9,1c0.5,0,0.9-0.3,1.4-0.9l0.3,0.5c-0.6,1-1.7,1.7-2.7,1.7
			c-1.3,0-2.1-0.7-2.1-2.3v-4.5h-1v-0.5c1.1-0.5,2.4-1.8,2.7-2.9h0.5v2.4h2.5l-0.3,1h-2.2L223.2,34.1L223.2,34.1z"/>
		<g id="UU_logo">
			<g>
				<g>
					<g>
						<g>
							<g>
								<g>
									<polygon id="SVGID_1_" fill="#FFFFFF" points="23.5,4.8 24,4.1 24.8,4 25.5,4.5 29.8,4.5 30.5,4 31.3,4.1 31.8,4.8 36,5.8 
										36.8,5.5 37.6,5.8 38,6.5 41.8,8.5 42.6,8.4 43.3,8.9 43.5,9.7 46.7,12.6 47.5,12.6 48.1,13.3 48.1,14.1 50.5,17.6 
										51.3,17.9 51.7,18.7 51.5,19.5 53,23.5 53.7,23.9 53.9,24.8 53.5,25.5 54,29.8 54.6,30.4 54.6,31.2 54,31.8 53.5,36.1 
										53.9,36.8 53.7,37.7 53,38.1 51.5,42.1 51.7,42.9 51.3,43.7 50.5,43.9 48.1,47.5 48.1,48.3 47.5,49 46.7,49 43.5,51.9 
										43.3,52.7 42.6,53.2 41.8,53.1 38,55.1 37.6,55.8 36.8,56.1 36,55.8 31.9,56.8 31.3,57.5 30.5,57.6 29.8,57.1 25.5,57.1 
										24.8,57.6 24,57.5 23.5,56.8 19.3,55.8 18.5,56.1 17.7,55.8 17.4,55.1 13.5,53.1 12.7,53.2 12,52.7 11.9,51.9 8.6,49 
										7.8,49 7.2,48.3 7.3,47.5 4.8,43.9 4,43.7 3.6,42.9 3.9,42.1 2.3,38.1 1.6,37.7 1.4,36.8 1.8,36.1 1.3,31.8 0.7,31.2 
										0.7,30.4 1.3,29.8 1.8,25.5 1.4,24.8 1.6,23.9 2.3,23.5 3.9,19.5 3.6,18.7 4,17.9 4.8,17.6 7.3,14.1 7.2,13.3 7.8,12.6 
										8.6,12.6 11.9,9.7 12,8.9 12.7,8.4 13.5,8.5 17.4,6.5 17.7,5.8 18.5,5.5 19.3,5.8 									"/>
								</g>
								<g>
									<defs>
										<polygon id="SVGID_2_" points="23.5,4.8 24,4.1 24.8,4 25.5,4.5 29.8,4.5 30.5,4 31.3,4.1 31.8,4.8 36,5.8 36.8,5.5 
											37.6,5.8 38,6.5 41.8,8.5 42.6,8.4 43.3,8.9 43.5,9.7 46.7,12.6 47.5,12.6 48.1,13.3 48.1,14.1 50.5,17.6 51.3,17.9 
											51.7,18.7 51.5,19.5 53,23.5 53.7,23.9 53.9,24.8 53.5,25.5 54,29.8 54.6,30.4 54.6,31.2 54,31.8 53.5,36.1 53.9,36.8 
											53.7,37.7 53,38.1 51.5,42.1 51.7,42.9 51.3,43.7 50.5,43.9 48.1,47.5 48.1,48.3 47.5,49 46.7,49 43.5,51.9 43.3,52.7 
											42.6,53.2 41.8,53.1 38,55.1 37.6,55.8 36.8,56.1 36,55.8 31.9,56.8 31.3,57.5 30.5,57.6 29.8,57.1 25.5,57.1 24.8,57.6 
											24,57.5 23.5,56.8 19.3,55.8 18.5,56.1 17.7,55.8 17.4,55.1 13.5,53.1 12.7,53.2 12,52.7 11.9,51.9 8.6,49 7.8,49 
											7.2,48.3 7.3,47.5 4.8,43.9 4,43.7 3.6,42.9 3.9,42.1 2.3,38.1 1.6,37.7 1.4,36.8 1.8,36.1 1.3,31.8 0.7,31.2 0.7,30.4 
											1.3,29.8 1.8,25.5 1.4,24.8 1.6,23.9 2.3,23.5 3.9,19.5 3.6,18.7 4,17.9 4.8,17.6 7.3,14.1 7.2,13.3 7.8,12.6 8.6,12.6 
											11.9,9.7 12,8.9 12.7,8.4 13.5,8.5 17.4,6.5 17.7,5.8 18.5,5.5 19.3,5.8 										"/>
									</defs>
									<clipPath id="SVGID_3_">
										<use xlink:href="#SVGID_2_"  overflow="visible"/>
									</clipPath>
									<g clip-path="url(#SVGID_3_)">
										<path fill="#FFFFFF" stroke="#FFFFFF" stroke-width="0.4" d="M32.3,7.3c0.2,0.1,0.6,0.3,0.8,0.4c0.3,0.1,0.6,0.1,0.7-0.3
											c0.1-0.3-0.3-0.5-0.8-0.7c-0.4-0.2-0.8-0.6-0.6-1.3c0.2-0.8,1.1-1,1.8-0.8c0.4,0.1,0.8,0.3,1.1,0.5L35,5.8
											c-0.2-0.2-0.6-0.3-0.8-0.4c-0.5-0.1-0.7,0-0.7,0.3c0,0.2,0,0.3,0.5,0.5c0.9,0.5,1.1,0.9,0.9,1.4c-0.2,0.9-1.1,1.1-1.9,0.9
											c-0.4-0.1-0.8-0.3-1.1-0.5L32.3,7.3z"/>
										<path fill="#FFFFFF" stroke="#FFFFFF" stroke-width="0.4" d="M40.2,6.8c1.2,0.6,1.4,1.8,0.9,2.8c-0.5,1-1.6,1.4-2.8,0.8
											c-1.2-0.6-1.4-1.8-0.9-2.8C38,6.7,39.1,6.2,40.2,6.8z M38.7,9.7c0.5,0.3,1.1,0.1,1.5-0.6c0.4-0.8,0.2-1.3-0.4-1.6
											c-0.5-0.3-1.1-0.1-1.5,0.6C38,8.9,38.2,9.5,38.7,9.7z"/>
										<path fill="#FFFFFF" stroke="#FFFFFF" stroke-width="0.4" d="M44.7,9.7l-2.5,3.1c0.7,0.5,1.3,1.1,1.9,1.7l0.6-0.6
											c-0.4-0.4-0.8-0.8-1.2-1.1l2-2.3"/>
										<path fill="#FFFFFF" stroke="#FFFFFF" stroke-width="0.4" d="M53.2,21.7L49.4,23c-0.1-0.3-0.2-0.6-0.3-0.9l3.7-1.5"/>
										<path fill="#FFFFFF" stroke="#FFFFFF" stroke-width="0.4" d="M54.7,28.6l-3.1-0.6l0,0l2.8-1.3l-0.2-1l-3.7,1.9
											c0.1,0.4,0.1,0.7,0.1,1.1l4,1"/>
										<path fill="#FFFFFF" stroke="#FFFFFF" stroke-width="0.4" d="M51.5,32.6c-0.1,0.2-0.2,0.6-0.3,0.9c0,0.3,0,0.6,0.3,0.7
											c0.4,0,0.4-0.4,0.6-0.8c0.2-0.4,0.5-0.9,1.2-0.8c0.8,0.1,1.1,1,1,1.7c-0.1,0.4-0.2,0.8-0.4,1.2l-0.7-0.4
											c0.1-0.2,0.2-0.6,0.3-0.8c0.1-0.5-0.1-0.7-0.3-0.7c-0.2,0-0.3,0.1-0.5,0.5c-0.3,1-0.8,1.2-1.3,1.1
											c-0.9-0.1-1.2-0.9-1.1-1.8c0-0.4,0.2-0.8,0.4-1.2L51.5,32.6z"/>
										<path fill="#FFFFFF" stroke="#FFFFFF" stroke-width="0.4" d="M52.4,41.8l-0.9-0.4c0.1-0.3,0.3-0.6,0.4-0.9l-2.8-1.1
											c0.1-0.3,0.2-0.6,0.3-0.9l2.8,1c0.1-0.3,0.2-0.6,0.3-0.9l1,0.3"/>
										<path fill="#FFFFFF" stroke="#FFFFFF" stroke-width="0.4" d="M49.6,46.6l-3.2-2.3c0.2-0.2,0.4-0.5,0.5-0.8l3.3,2.2"/>
										<path fill="#FFFFFF" stroke="#FFFFFF" stroke-width="0.4" d="M44.4,52.1l-0.6-0.8c0.3-0.2,0.5-0.4,0.8-0.6l-1.9-2.3
											c0.2-0.2,0.5-0.4,0.7-0.6l2,2.2c0.2-0.2,0.5-0.4,0.7-0.7l0.7,0.7"/>
										<path fill="#FFFFFF" stroke="#FFFFFF" stroke-width="0.4" d="M39.8,55L38,51.5c0.3-0.1,0.5-0.3,0.8-0.4l1.9,3.5"/>
										<path fill="#FFFFFF" stroke="#FFFFFF" stroke-width="0.4" d="M32.2,57.5l-0.7-3.9c0.8-0.1,1.6-0.3,2.3-0.5l0.3,1
											c0.4-0.1,0.8-0.2,1.2-0.4l0.2-0.8l0.6,1.3l-0.8,2.5L32.2,57.5z"/>
										<path fill="#FFFFFF" stroke="#FFFFFF" stroke-width="0.4" d="M20.7,57l1-3.8c0.3,0.1,0.6,0.2,0.9,0.2l-0.9,3.9"/>
										<path fill="#FFFFFF" stroke="#FFFFFF" stroke-width="0.4" d="M16.2,55.3l1.7-3.6c-0.8-0.4-1.5-0.8-2.2-1.2l-0.4,0.7
											c0.5,0.3,1,0.6,1.5,0.8l-1.4,2.8"/>
										<path fill="#FFFFFF" stroke="#FFFFFF" stroke-width="0.4" d="M10.6,51.9l2.5-3.1c-0.7-0.5-1.3-1.1-1.9-1.7l-0.6,0.6
											c0.4,0.4,0.8,0.8,1.2,1.1l-2,2.3"/>
										<path fill="#FFFFFF" stroke="#FFFFFF" stroke-width="0.4" d="M4.3,44.5l4-1c0.2,0.3,0.4,0.6,0.6,0.9l-2.4,3.4l-0.6-0.8
											l1.9-2.5l0,0l-3,0.9"/>
										<path fill="#FFFFFF" stroke="#FFFFFF" stroke-width="0.4" d="M5.7,40.3c0-0.2-0.1-0.6-0.2-0.9c-0.1-0.3-0.3-0.6-0.6-0.4
											c-0.3,0.1-0.2,0.6-0.2,1c0,0.5,0,1-0.7,1.2c-0.8,0.3-1.4-0.3-1.7-1c-0.2-0.4-0.2-0.8-0.2-1.2l0.8,0c0,0.3,0.1,0.6,0.1,0.8
											c0.2,0.4,0.4,0.6,0.6,0.5c0.1-0.1,0.2-0.2,0.2-0.7c-0.1-1,0.1-1.4,0.6-1.6c0.9-0.3,1.5,0.2,1.8,1c0.1,0.4,0.2,0.8,0.2,1.2
											L5.7,40.3z"/>
										<path fill="#FFFFFF" stroke="#FFFFFF" stroke-width="0.4" d="M0.6,32.5l1-0.1c0,0.3,0,0.7,0.1,1l3-0.3
											c0,0.3,0.1,0.6,0.1,0.9l-3,0.4c0,0.3,0.1,0.6,0.2,1l-1,0.2"/>
										<path fill="#FFFFFF" stroke="#FFFFFF" stroke-width="0.4" d="M5,26.3c-0.1,0.4-0.1,0.7-0.2,1c0,0-0.6,0.2-0.9,0.3
											c-0.3,0.1-0.7,0.3-0.7,0.6c0,0.1,0,0.1,0,0.1l1.5,0.1c0,0.3-0.1,0.6-0.1,0.9l-3.8-0.2c0-0.5,0.1-1.1,0.1-1.6
											c0.1-0.8,0.5-1.4,1.2-1.3c0.6,0,0.9,0.4,0.9,1l0,0c0.1-0.2,0.3-0.2,0.5-0.4C4,26.6,5,26.3,5,26.3z"/>
										<path fill="#FFFFFF" stroke="#FFFFFF" stroke-width="0.4" d="M2.5,20.6l4.3,0.1c-0.2,0.3-0.3,0.6-0.4,1l-0.9,0
											C5.3,22.1,5.2,22.5,5,23l0.7,0.6c-0.1,0.3-0.2,0.7-0.3,1l-3.3-2.9"/>
										<path fill="#FFFFFF" stroke="#FFFFFF" stroke-width="0.4" d="M9.2,11l2.9,1l-1.7-2.1l0.8-0.6l2.4,3.2
											c-0.3,0.2-0.5,0.4-0.8,0.6L10,12.2l1.8,1.9c-0.2,0.2-0.4,0.4-0.6,0.6l-2.8-2.8"/>
										<path fill="#FFFFFF" stroke="#FFFFFF" stroke-width="0.4" d="M15.1,6.8c1.2-0.6,2.3-0.2,2.8,0.8c0.5,1,0.3,2.2-0.9,2.8
											c-1.2,0.6-2.3,0.2-2.8-0.8C13.7,8.6,13.9,7.5,15.1,6.8z M16.6,9.8c0.5-0.3,0.7-0.8,0.4-1.6c-0.4-0.8-1-0.9-1.5-0.6
											c-0.5,0.3-0.7,0.8-0.3,1.6C15.5,9.9,16.1,10,16.6,9.8z"/>
										<path fill="#FFFFFF" stroke="#FFFFFF" stroke-width="0.4" d="M20.9,7.8c0.2,0,0.6,0,0.9-0.1c0.3-0.1,0.6-0.2,0.5-0.6
											c-0.1-0.3-0.5-0.3-1-0.3c-0.5,0-1-0.1-1.2-0.9c-0.2-0.8,0.5-1.4,1.2-1.6c0.4-0.1,0.8-0.1,1.3-0.1l-0.1,0.8
											c-0.3,0-0.6,0-0.8,0c-0.5,0.1-0.6,0.3-0.5,0.6c0,0.2,0.2,0.3,0.6,0.2c1,0,1.4,0.3,1.5,0.8c0.2,0.9-0.4,1.5-1.3,1.7
											c-0.4,0.1-0.8,0.1-1.2,0.1L20.9,7.8z"/>
									</g>
								</g>
							</g>
						</g>
						<circle fill="#FFFFFF" stroke="#FFFFFF" stroke-width="0.4" cx="27.7" cy="5.8" r="1"/>
						<circle fill="#FFFFFF" stroke="#FFFFFF" stroke-width="0.4" cx="48.2" cy="16.6" r="1"/>
						<circle fill="#FFFFFF" stroke="#FFFFFF" stroke-width="0.4" cx="27.7" cy="55.8" r="1"/>
						<circle fill="#FFFFFF" stroke="#FFFFFF" stroke-width="0.4" cx="7.1" cy="16.6" r="1"/>
					</g>
					<g>
						<g>
							<defs>
								<circle id="SVGID_4_" cx="27.7" cy="30.8" r="26.9"/>
							</defs>
							<clipPath id="SVGID_6_">
								<use xlink:href="#SVGID_4_"  overflow="visible"/>
							</clipPath>
							<polyline clip-path="url(#SVGID_6_)" points="24.8,3.8 27.7,20 30.5,3.8 							"/>
						</g>
						<g>
							<defs>
								<circle id="SVGID_7_" cx="27.7" cy="30.8" r="26.9"/>
							</defs>
							<clipPath id="SVGID_8_">
								<use xlink:href="#SVGID_7_"  overflow="visible"/>
							</clipPath>
							<polyline clip-path="url(#SVGID_8_)" points="31.4,3.9 30.2,20.3 36.9,5.2 							"/>
						</g>
						<g>
							<defs>
								<circle id="SVGID_9_" cx="27.7" cy="30.8" r="26.9"/>
							</defs>
							<clipPath id="SVGID_10_">
								<use xlink:href="#SVGID_9_"  overflow="visible"/>
							</clipPath>
							<polyline clip-path="url(#SVGID_10_)" points="37.7,5.5 32.7,21.3 42.7,8.2 							"/>
						</g>
						<g>
							<defs>
								<circle id="SVGID_11_" cx="27.7" cy="30.8" r="26.9"/>
							</defs>
							<clipPath id="SVGID_12_">
								<use xlink:href="#SVGID_11_"  overflow="visible"/>
							</clipPath>
							<polyline clip-path="url(#SVGID_12_)" points="43.4,8.7 34.8,22.7 47.7,12.5 							"/>
						</g>
						<g>
							<defs>
								<circle id="SVGID_13_" cx="27.7" cy="30.8" r="26.9"/>
							</defs>
							<clipPath id="SVGID_14_">
								<use xlink:href="#SVGID_13_"  overflow="visible"/>
							</clipPath>
							<polyline clip-path="url(#SVGID_14_)" points="48.3,13.1 36.5,24.7 51.5,17.8 							"/>
						</g>
						<g>
							<defs>
								<circle id="SVGID_15_" cx="27.7" cy="30.8" r="26.9"/>
							</defs>
							<clipPath id="SVGID_16_">
								<use xlink:href="#SVGID_15_"  overflow="visible"/>
							</clipPath>
							<polyline clip-path="url(#SVGID_16_)" points="51.9,18.5 37.7,27 53.9,23.9 							"/>
						</g>
						<g>
							<defs>
								<circle id="SVGID_17_" cx="27.7" cy="30.8" r="26.9"/>
							</defs>
							<clipPath id="SVGID_18_">
								<use xlink:href="#SVGID_17_"  overflow="visible"/>
							</clipPath>
							<polyline clip-path="url(#SVGID_18_)" points="54.1,24.7 38.4,29.5 54.8,30.4 							"/>
						</g>
						<g>
							<defs>
								<circle id="SVGID_19_" cx="27.7" cy="30.8" r="26.9"/>
							</defs>
							<clipPath id="SVGID_20_">
								<use xlink:href="#SVGID_19_"  overflow="visible"/>
							</clipPath>
							<polyline clip-path="url(#SVGID_20_)" points="54.8,31.2 38.4,32.1 54.1,36.9 							"/>
						</g>
						<g>
							<defs>
								<circle id="SVGID_21_" cx="27.7" cy="30.8" r="26.9"/>
							</defs>
							<clipPath id="SVGID_22_">
								<use xlink:href="#SVGID_21_"  overflow="visible"/>
							</clipPath>
							<polyline clip-path="url(#SVGID_22_)" points="53.9,37.7 37.7,34.6 51.9,43 							"/>
						</g>
						<g>
							<defs>
								<circle id="SVGID_23_" cx="27.7" cy="30.8" r="26.9"/>
							</defs>
							<clipPath id="SVGID_24_">
								<use xlink:href="#SVGID_23_"  overflow="visible"/>
							</clipPath>
							<polyline clip-path="url(#SVGID_24_)" points="51.5,43.8 36.5,36.9 48.3,48.5 							"/>
						</g>
						<g>
							<defs>
								<circle id="SVGID_25_" cx="27.7" cy="30.8" r="26.9"/>
							</defs>
							<clipPath id="SVGID_26_">
								<use xlink:href="#SVGID_25_"  overflow="visible"/>
							</clipPath>
							<polyline clip-path="url(#SVGID_26_)" points="47.7,49.1 34.8,38.9 43.4,52.9 							"/>
						</g>
						<g>
							<defs>
								<circle id="SVGID_27_" cx="27.7" cy="30.8" r="26.9"/>
							</defs>
							<clipPath id="SVGID_28_">
								<use xlink:href="#SVGID_27_"  overflow="visible"/>
							</clipPath>
							<polyline clip-path="url(#SVGID_28_)" points="42.7,53.4 32.7,40.3 37.7,56 							"/>
						</g>
						<g>
							<defs>
								<circle id="SVGID_29_" cx="27.7" cy="30.8" r="26.9"/>
							</defs>
							<clipPath id="SVGID_30_">
								<use xlink:href="#SVGID_29_"  overflow="visible"/>
							</clipPath>
							<polyline clip-path="url(#SVGID_30_)" points="30.5,57.8 27.7,41.6 24.8,57.8 							"/>
						</g>
						<g>
							<defs>
								<circle id="SVGID_31_" cx="27.7" cy="30.8" r="26.9"/>
							</defs>
							<clipPath id="SVGID_32_">
								<use xlink:href="#SVGID_31_"  overflow="visible"/>
							</clipPath>
							<polyline clip-path="url(#SVGID_32_)" points="24,57.7 25.1,41.3 18.4,56.3 							"/>
						</g>
						<g>
							<defs>
								<circle id="SVGID_33_" cx="27.7" cy="30.8" r="26.9"/>
							</defs>
							<clipPath id="SVGID_34_">
								<use xlink:href="#SVGID_33_"  overflow="visible"/>
							</clipPath>
							<polyline clip-path="url(#SVGID_34_)" points="17.6,56 22.7,40.3 12.6,53.4 							"/>
						</g>
						<g>
							<defs>
								<circle id="SVGID_35_" cx="27.7" cy="30.8" r="26.9"/>
							</defs>
							<clipPath id="SVGID_36_">
								<use xlink:href="#SVGID_35_"  overflow="visible"/>
							</clipPath>
							<polyline clip-path="url(#SVGID_36_)" points="11.9,52.9 20.5,38.9 7.6,49.1 							"/>
						</g>
						<g>
							<defs>
								<circle id="SVGID_37_" cx="27.7" cy="30.8" r="26.9"/>
							</defs>
							<clipPath id="SVGID_38_">
								<use xlink:href="#SVGID_37_"  overflow="visible"/>
							</clipPath>
							<polyline clip-path="url(#SVGID_38_)" points="7.1,48.5 18.8,36.9 3.8,43.8 							"/>
						</g>
						<g>
							<defs>
								<circle id="SVGID_39_" cx="27.7" cy="30.8" r="26.9"/>
							</defs>
							<clipPath id="SVGID_40_">
								<use xlink:href="#SVGID_39_"  overflow="visible"/>
							</clipPath>
							<polyline clip-path="url(#SVGID_40_)" points="3.4,43 17.6,34.6 1.4,37.7 							"/>
						</g>
						<g>
							<defs>
								<circle id="SVGID_41_" cx="27.7" cy="30.8" r="26.9"/>
							</defs>
							<clipPath id="SVGID_42_">
								<use xlink:href="#SVGID_41_"  overflow="visible"/>
							</clipPath>
							<polyline clip-path="url(#SVGID_42_)" points="1.2,36.9 17,32.1 0.5,31.2 							"/>
						</g>
						<g>
							<defs>
								<circle id="SVGID_43_" cx="27.7" cy="30.8" r="26.9"/>
							</defs>
							<clipPath id="SVGID_44_">
								<use xlink:href="#SVGID_43_"  overflow="visible"/>
							</clipPath>
							<polyline clip-path="url(#SVGID_44_)" points="0.5,30.4 17,29.5 1.2,24.7 							"/>
						</g>
						<g>
							<defs>
								<circle id="SVGID_45_" cx="27.7" cy="30.8" r="26.9"/>
							</defs>
							<clipPath id="SVGID_46_">
								<use xlink:href="#SVGID_45_"  overflow="visible"/>
							</clipPath>
							<polyline clip-path="url(#SVGID_46_)" points="1.4,23.9 17.6,27 3.4,18.5 							"/>
						</g>
						<g>
							<defs>
								<circle id="SVGID_47_" cx="27.7" cy="30.8" r="26.9"/>
							</defs>
							<clipPath id="SVGID_48_">
								<use xlink:href="#SVGID_47_"  overflow="visible"/>
							</clipPath>
							<polyline clip-path="url(#SVGID_48_)" points="3.8,17.8 18.8,24.7 7.1,13.1 							"/>
						</g>
						<g>
							<defs>
								<circle id="SVGID_49_" cx="27.7" cy="30.8" r="26.9"/>
							</defs>
							<clipPath id="SVGID_50_">
								<use xlink:href="#SVGID_49_"  overflow="visible"/>
							</clipPath>
							<polyline clip-path="url(#SVGID_50_)" points="7.6,12.5 20.5,22.7 11.9,8.7 							"/>
						</g>
						<g>
							<defs>
								<circle id="SVGID_51_" cx="27.7" cy="30.8" r="26.9"/>
							</defs>
							<clipPath id="SVGID_52_">
								<use xlink:href="#SVGID_51_"  overflow="visible"/>
							</clipPath>
							<polyline clip-path="url(#SVGID_52_)" points="12.6,8.2 22.7,21.3 17.6,5.5 							"/>
						</g>
						<g>
							<defs>
								<circle id="SVGID_53_" cx="27.7" cy="30.8" r="26.9"/>
							</defs>
							<clipPath id="SVGID_54_">
								<use xlink:href="#SVGID_53_"  overflow="visible"/>
							</clipPath>
							<polyline clip-path="url(#SVGID_54_)" points="18.4,5.2 25.1,20.3 24,3.9 							"/>
						</g>
						<g>
							<defs>
								<circle id="SVGID_55_" cx="27.7" cy="30.8" r="26.9"/>
							</defs>
							<clipPath id="SVGID_56_">
								<use xlink:href="#SVGID_55_"  overflow="visible"/>
							</clipPath>
							<path clip-path="url(#SVGID_56_)" fill="#FFFFFF" d="M44.7,9.7l-2.5,3.1c0.7,0.5,1.3,1.1,1.9,1.7l0.6-0.6
								c-0.4-0.4-0.8-0.8-1.2-1.1l2-2.3"/>
						</g>
						<g>
							<defs>
								<circle id="SVGID_57_" cx="27.7" cy="30.8" r="26.9"/>
							</defs>
							<clipPath id="SVGID_58_">
								<use xlink:href="#SVGID_57_"  overflow="visible"/>
							</clipPath>
							<path clip-path="url(#SVGID_58_)" fill="#FFFFFF" d="M53.2,21.7L49.4,23c-0.1-0.3-0.2-0.6-0.3-0.9l3.7-1.5"/>
						</g>
						<g>
							<defs>
								<circle id="SVGID_59_" cx="27.7" cy="30.8" r="26.9"/>
							</defs>
							<clipPath id="SVGID_60_">
								<use xlink:href="#SVGID_59_"  overflow="visible"/>
							</clipPath>
							<path clip-path="url(#SVGID_60_)" fill="#FFFFFF" d="M54.7,28.6l-3.1-0.6l0,0l2.8-1.3l-0.2-1l-3.7,1.9
								c0.1,0.4,0.1,0.7,0.1,1.1l4,1"/>
						</g>
						<g>
							<defs>
								<circle id="SVGID_61_" cx="27.7" cy="30.8" r="26.9"/>
							</defs>
							<clipPath id="SVGID_62_">
								<use xlink:href="#SVGID_61_"  overflow="visible"/>
							</clipPath>
							<path clip-path="url(#SVGID_62_)" fill="#FFFFFF" d="M52.4,41.8l-0.9-0.4c0.1-0.3,0.3-0.6,0.4-0.9l-2.8-1.1
								c0.1-0.3,0.2-0.6,0.3-0.9l2.8,1c0.1-0.3,0.2-0.6,0.3-0.9l1,0.3"/>
						</g>
						<g>
							<defs>
								<circle id="SVGID_63_" cx="27.7" cy="30.8" r="26.9"/>
							</defs>
							<clipPath id="SVGID_64_">
								<use xlink:href="#SVGID_63_"  overflow="visible"/>
							</clipPath>
							<path clip-path="url(#SVGID_64_)" fill="#FFFFFF" d="M49.6,46.6l-3.2-2.3c0.2-0.2,0.4-0.5,0.5-0.8l3.3,2.2"/>
						</g>
						<g>
							<defs>
								<circle id="SVGID_65_" cx="27.7" cy="30.8" r="26.9"/>
							</defs>
							<clipPath id="SVGID_66_">
								<use xlink:href="#SVGID_65_"  overflow="visible"/>
							</clipPath>
							<path clip-path="url(#SVGID_66_)" fill="#FFFFFF" d="M44.4,52.1l-0.6-0.8c0.3-0.2,0.5-0.4,0.8-0.6l-1.9-2.3
								c0.2-0.2,0.5-0.4,0.7-0.6l2,2.2c0.2-0.2,0.5-0.4,0.7-0.7l0.7,0.7"/>
						</g>
						<g>
							<defs>
								<circle id="SVGID_67_" cx="27.7" cy="30.8" r="26.9"/>
							</defs>
							<clipPath id="SVGID_68_">
								<use xlink:href="#SVGID_67_"  overflow="visible"/>
							</clipPath>
							<path clip-path="url(#SVGID_68_)" fill="#FFFFFF" d="M39.8,55L38,51.5c0.3-0.1,0.5-0.3,0.8-0.4l1.9,3.5"/>
						</g>
						<g>
							<defs>
								<circle id="SVGID_69_" cx="27.7" cy="30.8" r="26.9"/>
							</defs>
							<clipPath id="SVGID_70_">
								<use xlink:href="#SVGID_69_"  overflow="visible"/>
							</clipPath>
							<g clip-path="url(#SVGID_70_)">
								<g>
									<g>
										<polyline id="SVGID_5_" points="36.9,56.3 30.2,41.3 31.4,57.7 										"/>
									</g>
									<g>
										<defs>
											<polyline id="SVGID_71_" points="36.9,56.3 30.2,41.3 31.4,57.7 											"/>
										</defs>
										<clipPath id="SVGID_72_">
											<use xlink:href="#SVGID_71_"  overflow="visible"/>
										</clipPath>
										<path clip-path="url(#SVGID_72_)" fill="#FFFFFF" d="M35.4,56.8l0.8-2.5l-0.6-1.3l-0.2,0.8c-0.4,0.1-0.8,0.3-1.2,0.4
											l-0.3-1c-0.8,0.2-1.5,0.4-2.3,0.5l0.1,0.8c0.5-0.1,1-0.2,1.5-0.3l0.2,0.7c-0.5,0.1-0.9,0.2-1.4,0.3l0.1,0.8
											c0.5-0.1,0.9-0.2,1.4-0.3l0.2,0.6c-0.6,0.1-1.1,0.2-1.6,0.3l0.2,1 M34.7,56.2l-0.4-1.4c0.3-0.1,0.6-0.2,0.8-0.2L34.7,56.2
											L34.7,56.2z"/>
									</g>
								</g>
								<g>
									<defs>
										<circle id="SVGID_73_" cx="27.7" cy="30.8" r="26.9"/>
									</defs>
									<clipPath id="SVGID_74_">
										<use xlink:href="#SVGID_73_"  overflow="visible"/>
									</clipPath>
									<path clip-path="url(#SVGID_74_)" fill="#FFFFFF" d="M20.7,57l1-3.8c0.3,0.1,0.6,0.2,0.9,0.2l-0.9,3.9"/>
								</g>
								<g>
									<defs>
										<circle id="SVGID_75_" cx="27.7" cy="30.8" r="26.9"/>
									</defs>
									<clipPath id="SVGID_76_">
										<use xlink:href="#SVGID_75_"  overflow="visible"/>
									</clipPath>
									<path clip-path="url(#SVGID_76_)" fill="#FFFFFF" d="M16.2,55.3l1.7-3.6c-0.8-0.4-1.5-0.8-2.2-1.2l-0.4,0.7
										c0.5,0.3,1,0.6,1.5,0.8l-1.4,2.8"/>
								</g>
								<g>
									<defs>
										<circle id="SVGID_77_" cx="27.7" cy="30.8" r="26.9"/>
									</defs>
									<clipPath id="SVGID_78_">
										<use xlink:href="#SVGID_77_"  overflow="visible"/>
									</clipPath>
									<path clip-path="url(#SVGID_78_)" fill="#FFFFFF" d="M10.6,51.9l2.5-3.1c-0.7-0.5-1.3-1.1-1.9-1.7l-0.6,0.6
										c0.4,0.4,0.8,0.8,1.2,1.1l-2,2.3"/>
								</g>
								<g>
									<defs>
										<circle id="SVGID_79_" cx="27.7" cy="30.8" r="26.9"/>
									</defs>
									<clipPath id="SVGID_80_">
										<use xlink:href="#SVGID_79_"  overflow="visible"/>
									</clipPath>
									<path clip-path="url(#SVGID_80_)" fill="#FFFFFF" d="M4.3,44.5l4-1c0.2,0.3,0.4,0.6,0.6,0.9l-2.4,3.4l-0.6-0.8l1.9-2.5l0,0
										l-3,0.9"/>
								</g>
								<g>
									<defs>
										<circle id="SVGID_81_" cx="27.7" cy="30.8" r="26.9"/>
									</defs>
									<clipPath id="SVGID_82_">
										<use xlink:href="#SVGID_81_"  overflow="visible"/>
									</clipPath>
									<path clip-path="url(#SVGID_82_)" fill="#FFFFFF" d="M0.6,32.5l1-0.1c0,0.3,0,0.7,0.1,1l3-0.3c0,0.3,0.1,0.6,0.1,0.9
										l-3,0.4c0,0.3,0.1,0.6,0.2,1l-1,0.2"/>
								</g>
								<g>
									<defs>
										<circle id="SVGID_83_" cx="27.7" cy="30.8" r="26.9"/>
									</defs>
									<clipPath id="SVGID_84_">
										<use xlink:href="#SVGID_83_"  overflow="visible"/>
									</clipPath>
									<path clip-path="url(#SVGID_84_)" fill="#FFFFFF" d="M0.7,27.5l0.2,0c0.1-0.8,0.5-1.4,1.2-1.3c0.6,0,0.9,0.4,0.9,1l0,0
										c0.1-0.2,0.3-0.2,0.5-0.4C4,26.6,5,26.3,5,26.3c-0.1,0.4-0.1,0.7-0.2,1c0,0-0.6,0.2-0.9,0.3c-0.3,0.1-0.7,0.3-0.7,0.6
										c0,0.1,0,0.1,0,0.1l1.5,0.1c0,0.3-0.1,0.6-0.1,0.9l-4-0.2 M1.6,27.7c0,0.1,0,0.3,0,0.4l1,0.1c0-0.1,0-0.3,0-0.4
										c0-0.2,0-0.6-0.4-0.6C1.8,27.2,1.6,27.3,1.6,27.7z"/>
								</g>
								<g>
									<defs>
										<circle id="SVGID_85_" cx="27.7" cy="30.8" r="26.9"/>
									</defs>
									<clipPath id="SVGID_86_">
										<use xlink:href="#SVGID_85_"  overflow="visible"/>
									</clipPath>
									<path clip-path="url(#SVGID_86_)" fill="#FFFFFF" d="M2.5,20.6l4.3,0.1c-0.2,0.3-0.3,0.6-0.4,1l-0.9,0
										C5.3,22.1,5.2,22.5,5,23l0.7,0.6c-0.1,0.3-0.2,0.7-0.3,1l-3.3-2.9 M3.2,21.5l1.2,1c0.1-0.3,0.2-0.6,0.3-0.8L3.2,21.5
										L3.2,21.5z"/>
								</g>
								<g>
									<defs>
										<circle id="SVGID_87_" cx="27.7" cy="30.8" r="26.9"/>
									</defs>
									<clipPath id="SVGID_88_">
										<use xlink:href="#SVGID_87_"  overflow="visible"/>
									</clipPath>
									<path clip-path="url(#SVGID_88_)" fill="#FFFFFF" d="M9.2,11l2.9,1l-1.7-2.1l0.8-0.6l2.4,3.2c-0.3,0.2-0.5,0.4-0.8,0.6
										L10,12.2l1.8,1.9c-0.2,0.2-0.4,0.4-0.6,0.6l-2.8-2.8"/>
								</g>
								<g>
									<defs>
										<circle id="SVGID_89_" cx="27.7" cy="30.8" r="26.9"/>
									</defs>
									<clipPath id="SVGID_90_">
										<use xlink:href="#SVGID_89_"  overflow="visible"/>
									</clipPath>
									<g clip-path="url(#SVGID_90_)">
										<path fill="#FFFFFF" d="M32.3,7.3c0.2,0.1,0.6,0.3,0.8,0.4c0.3,0.1,0.6,0.1,0.7-0.3c0.1-0.3-0.3-0.5-0.8-0.7
											c-0.4-0.2-0.8-0.6-0.6-1.3c0.2-0.8,1.1-1,1.8-0.8c0.4,0.1,0.8,0.3,1.1,0.5L35,5.8c-0.2-0.2-0.6-0.3-0.8-0.4
											c-0.5-0.1-0.7,0-0.7,0.3c0,0.2,0,0.3,0.5,0.5c0.9,0.5,1.1,0.9,0.9,1.4c-0.2,0.9-1.1,1.1-1.9,0.9c-0.4-0.1-0.8-0.3-1.1-0.5
											L32.3,7.3z"/>
										<path fill="#FFFFFF" d="M40.2,6.8c1.2,0.6,1.4,1.8,0.9,2.8c-0.5,1-1.6,1.4-2.8,0.8c-1.2-0.6-1.4-1.8-0.9-2.8
											C38,6.7,39.1,6.2,40.2,6.8z M38.7,9.7c0.5,0.3,1.1,0.1,1.5-0.6c0.4-0.8,0.2-1.3-0.4-1.6c-0.5-0.3-1.1-0.1-1.5,0.6
											C38,8.9,38.2,9.5,38.7,9.7z"/>
										<path fill="#FFFFFF" d="M51.5,32.6c-0.1,0.2-0.2,0.6-0.3,0.9c0,0.3,0,0.6,0.3,0.7c0.4,0,0.4-0.4,0.6-0.8
											c0.2-0.4,0.5-0.9,1.2-0.8c0.8,0.1,1.1,1,1,1.7c-0.1,0.4-0.2,0.8-0.4,1.2l-0.7-0.4c0.1-0.2,0.2-0.6,0.3-0.8
											c0.1-0.5-0.1-0.7-0.3-0.7c-0.2,0-0.3,0.1-0.5,0.5c-0.3,1-0.8,1.2-1.3,1.1c-0.9-0.1-1.2-0.9-1.1-1.8c0-0.4,0.2-0.8,0.4-1.2
											L51.5,32.6z"/>
										<path fill="#FFFFFF" d="M5.7,40.3c0-0.2-0.1-0.6-0.2-0.9c-0.1-0.3-0.3-0.6-0.6-0.4c-0.3,0.1-0.2,0.6-0.2,1
											c0,0.5,0,1-0.7,1.2c-0.8,0.3-1.4-0.3-1.7-1c-0.2-0.4-0.2-0.8-0.2-1.2l0.8,0c0,0.3,0.1,0.6,0.1,0.8
											c0.2,0.4,0.4,0.6,0.6,0.5c0.1-0.1,0.2-0.2,0.2-0.7c-0.1-1,0.1-1.4,0.6-1.6c0.9-0.3,1.5,0.2,1.8,1c0.1,0.4,0.2,0.8,0.2,1.2
											L5.7,40.3z"/>
										<path fill="#FFFFFF" d="M15.1,6.8c1.2-0.6,2.3-0.2,2.8,0.8c0.5,1,0.3,2.2-0.9,2.8c-1.2,0.6-2.3,0.2-2.8-0.8
											C13.7,8.6,13.9,7.5,15.1,6.8z M16.6,9.8c0.5-0.3,0.7-0.8,0.4-1.6c-0.4-0.8-1-0.9-1.5-0.6c-0.5,0.3-0.7,0.8-0.3,1.6
											C15.5,9.9,16.1,10,16.6,9.8z"/>
										<path fill="#FFFFFF" d="M20.9,7.8c0.2,0,0.6,0,0.9-0.1c0.3-0.1,0.6-0.2,0.5-0.6c-0.1-0.3-0.5-0.3-1-0.3
											c-0.5,0-1-0.1-1.2-0.9c-0.2-0.8,0.5-1.4,1.2-1.6c0.4-0.1,0.8-0.1,1.3-0.1l-0.1,0.8c-0.3,0-0.6,0-0.8,0
											c-0.5,0.1-0.6,0.3-0.5,0.6c0,0.2,0.2,0.3,0.6,0.2c1,0,1.4,0.3,1.5,0.8c0.2,0.9-0.4,1.5-1.3,1.7c-0.4,0.1-0.8,0.1-1.2,0.1
											L20.9,7.8z"/>
									</g>
								</g>
								<g>
									<defs>
										<circle id="SVGID_91_" cx="27.7" cy="30.8" r="26.9"/>
									</defs>
									<clipPath id="SVGID_92_">
										<use xlink:href="#SVGID_91_"  overflow="visible"/>
									</clipPath>
									<g clip-path="url(#SVGID_92_)">
										<circle fill="#FFFFFF" cx="27.7" cy="5.8" r="1"/>
										<circle fill="#FFFFFF" cx="48.2" cy="16.6" r="1"/>
										<circle fill="#FFFFFF" cx="27.7" cy="55.8" r="1"/>
										<circle fill="#FFFFFF" cx="7.1" cy="16.6" r="1"/>
									</g>
								</g>
							</g>
							<path clip-path="url(#SVGID_70_)" fill="none" d="M27.7,30.8"/>
							<g clip-path="url(#SVGID_70_)">
								<g>
									<path d="M31.4,34.5C31,34.8,30.6,35,30.2,35h-1c-0.5,0-1,0.3-1.3,0.7h-0.4c-0.3-0.4-0.8-0.7-1.3-0.7h-1
										c-0.9,0-1.7-0.7-1.7-1.7v-6.7"/>
									<path fill="#FFFFFF" d="M23.5,26.6h8.3v6.7c0,0.5-0.2,0.9-0.5,1.2"/>
								</g>
								<path d="M32.3,33.3c0,1.2-0.9,2.1-2.1,2.1h-1c-0.5,0-1,0.3-1.1,0.8h-0.8c-0.2-0.4-0.6-0.8-1.1-0.8h-1
									c-1.2,0-2.1-0.9-2.1-2.1v-7.1h9.2L32.3,33.3L32.3,33.3z M31.4,27h-7.5v6.2c0,0.7,0.6,1.2,1.2,1.2h1c0.6,0,1.1,0.3,1.5,0.6h0
									c0.4-0.4,0.9-0.6,1.5-0.6h1c0.7,0,1.2-0.6,1.2-1.2L31.4,27L31.4,27z"/>
							</g>
						</g>
					</g>
				</g>
			</g>
		</g>
	</g>
</g>
</svg>
